<svg xmlns="http://www.w3.org/2000/svg" xml:space="preserve" width="512.04" height="490.42" x="0px" y="0px" viewBox="0 0 512.04 490.412"><g transform="matrix(2.11796 0 0 2.11796 -15.079 -25.893)"><circle cx="128.075" cy="126.26" r="109" fill="#4e4a4a"/><linearGradient id="a" x1="324.56931" x2="427.23499" y1="-144.0381" y2="-261.37109" gradientTransform="matrix(1 0 0 -1 -256 -90)" gradientUnits="userSpaceOnUse"><stop offset="0" style="stop-color:#ded9d9"/><stop offset="1" style="stop-color:#6a6363"/></linearGradient><path fill="url(#a)" d="M67.243 45.813s-8.167 4.917-5.292 15.667 8.125 16.75 12.25 21.875 8.292 12.542 7.625 17.625c-.667 5.083-2.375 25.419 10.75 38.647 13.125 13.227 22.875 13.602 22.875 13.602l-3.25 2.375-40.597 33.256 11.472 16.787 27.833 23.832-19.833-3.666-1.417 5.25 28.917.416-12-19.5-20.5-18.832s-3.584-3.793 3.583-9.043c7.167-5.25 42.167-32.043 42.167-32.043l38.833-57.581s3.125.125 9 .5 51.542 20.75 51.542 20.75-.778-15.379-1.542-22.75c-.316-3.062.979-2.7 2.834 1.667 1.854 4.366.75 12 .75 12l-1.25-17.333-6.917-9.333-1.75 8s1.375 8.125 1.75 11.125-1 4-5.375 2-18.875-6.75-28.5-8-24.375-1.875-24.375-1.875l-75 1-4 2.917s.937-3.438-3.063-10.104c-4-6.666-17.52-39.231-17.52-39.231z" style="fill:url(#a)"/><path fill="#007a3f" d="M74.794 89.323s4.563 8.094 4.094 14.469c-.437 5.938-.813 31.187 23.188 45.562 6.234 3.734 11.599 5.156 11.599 5.156l.568 2.303-13.979 1.104-35.188-34.937.375-28.25 5.125-5.5 2.75-.625z"/><path fill="#005a2b" d="M99.409 231.063s11.5 1 16.25.5 23.583 5.5 23.583 5.5-2.751 4.138-8.667 5.109c-5.917.975-36.583-7.525-36.583-7.525z"/><path fill="#00663f" d="M114.243 156.813s-36.739 26.406-41.667 35.834c-4.928 9.429 8.499 21.668 17.083 28.834 8.584 7.166 21.167 18.873 44.792 19.373 0 0-15.625 4.875-39.125-4.125s-49.75-59-49.75-59z"/><path fill="#262626" d="m61.576 36.854 3.682 1.625-11.057 8.5-1.125-7z"/><path fill="#007a3f" d="M65.451 35.896s-5.917-2.458-10 1.917-6.041 22 11.792 40.5c0 0-12.584-16.998-12.25-30.5.333-13.5 10.833-9.083 10.833-9.083z"/><radialGradient id="b" cx="351.82419" cy="-188.47951" r="175.0517" gradientTransform="matrix(1 0 0 -1 -256 -90)" gradientUnits="userSpaceOnUse"><stop offset="0.0765" style="stop-color:#8ddb92"/><stop offset="0.1633" style="stop-color:#77ce7c"/><stop offset="0.3431" style="stop-color:#3eab45"/><stop offset="0.5021" style="stop-color:#078a0f"/><stop offset="0.581" style="stop-color:#108c18"/><stop offset="0.7085" style="stop-color:#28922f"/><stop offset="0.7148" style="stop-color:#299230"/></radialGradient><path fill="url(#b)" d="M122.201 241.104c-20.125-2.125-38-19.125-45-26.5s-16.25-15.25-4.625-26.75 41.667-31.041 41.667-31.041c-22.215-5.442-38.668-25.774-38.668-49.667 0-4.174.718-7.782 1.095-11.76.239-2.531-1.969-7.781-8.844-16.156-6.875-8.375-13.276-19.045-14.563-29.063-1.438-11.188 6.271-14.688 6.271-14.688-6.541.25-17.958 11.5-17.958 11.5-33.75 31.75-45.667 84.667-22.333 130.667 23.332 46 66.333 61.166 86.833 64.834 20.5 3.666 28.375-1.627 28.375-1.627-3.751 1.063-12.25.251-12.25.251z" style="fill:url(#b)"/><path fill="#af8513" d="M238.139 114.566c5.396 3.643 6.938 4.414 5.438-10.586s-15.125-36.5-15.125-36.5l.029.145c4.205 7.844 11.629 23.352 12.93 37.189.991 10.561.362 11.776-3.272 9.752z"/><path fill="#591f00" d="m231.075 82.604 2 38.75h13.25s4.5-25.25-21.25-58.25z"/><path fill="#8f0404" d="m81.887 83.542 2.875 1.5s15.979-21.896 37.48-23.729c21.5-1.833 38.499 10.833 44.166 17 5.667 6.167 8.501 8.833 16.834 8.833s36.138 4.457 46.221 8.957l6.078-2.341-30.133-28.449-102.165-25.334Z"/><radialGradient id="c" cx="386.72559" cy="-214.623" r="116.2404" gradientTransform="matrix(1 0 0 -1 -256 -90)" gradientUnits="userSpaceOnUse"><stop offset="0.6157" style="stop-color:#f60000"/><stop offset="0.7247" style="stop-color:#e70505"/><stop offset="0.9171" style="stop-color:#c41212"/><stop offset="1" style="stop-color:#dd7878"/></radialGradient><path fill="url(#c)" d="M81.887 83.542s8.813-17.813 29.188-24.063 42.25-3.25 59.375 17.375l1.75 1.875s2.875 3.188 11.063 3.5c8.188.312 34.313 4.083 44.979 9.333l5.041 2.167s3.541 1.625 2.875-2.792c-.666-4.417-3.932-24.363-21.583-42.958-21.833-23-57.25-36-84.25-35.75s-47.583 6.75-64.917 17.417c0 0-.833 10.75.917 17.75s10.083 25.167 14.083 31.167c.001 0 1.594 2.291 1.479 4.979z" style="fill:url(#c)"/><radialGradient id="d" cx="383.82419" cy="-189.31149" r="52.106899" gradientTransform="matrix(1 0 0 -1 -256 -90)" gradientUnits="userSpaceOnUse"><stop offset="0" style="stop-color:#b1ddf4"/><stop offset="0.0742" style="stop-color:#a9d7f3"/><stop offset="0.1904" style="stop-color:#93c7f1"/><stop offset="0.3332" style="stop-color:#6eadee"/><stop offset="0.4" style="stop-color:#5b9fec"/><stop offset="0.5273" style="stop-color:#0b85d1"/><stop offset="0.6182" style="stop-color:#1375b3"/><stop offset="0.6537" style="stop-color:#166fa8"/><stop offset="0.716" style="stop-color:#1e608b"/><stop offset="0.7971" style="stop-color:#2b475c"/><stop offset="0.8424" style="stop-color:#33383f"/><stop offset="1" style="stop-color:#363233"/></radialGradient><ellipse cx="128.075" cy="110.792" fill="url(#d)" rx="46.25" ry="42.75" style="fill:url(#d)"/><linearGradient id="e" x1="287.08109" x2="311.81119" y1="-168.96831" y2="-301.85059" gradientTransform="matrix(1 0 0 -1 -256 -90)" gradientUnits="userSpaceOnUse"><stop offset="0" style="stop-color:#fff"/><stop offset="1" style="stop-color:#fff;stop-opacity:.53"/></linearGradient><path fill="url(#e)" d="M51.493 45.813s-32.666 37.333-32.334 78.166c.328 40.234 19.917 62 40.167 76.666 18.39 13.32 5.667 14.168-3.5 6.668 0 0-51.015-35.127-38.667-99.333 6.668-34.667 34.334-62.167 34.334-62.167z" opacity="0.32" style="fill:url(#e)"/><linearGradient id="f" x1="303.5654" x2="321.5654" y1="-153.9297" y2="-194.5968" gradientTransform="matrix(1 0 0 -1 -256 -90)" gradientUnits="userSpaceOnUse"><stop offset="0" style="stop-color:#fff"/><stop offset="0.517" style="stop-color:#fff;stop-opacity:.53"/></linearGradient><path fill="url(#f)" d="M64.055 76.104s-3.5 1.438-6.813-2.25c-3.313-3.688-8.688 1.875-11.25 3-2.562 1.125-5.438-1.938-5.375-4.438.063-2.5-1-8.688 2.813-13.25 3.813-4.562 8.875-8.625 8.875-8.625s-.834 11.251 11.75 25.563z" opacity="0.5" style="fill:url(#f)"/><linearGradient id="g" x1="329.18951" x2="329.18939" y1="-367.64551" y2="-263.64569" gradientTransform="matrix(1 0 0 -1 -256 -90)" gradientUnits="userSpaceOnUse"><stop offset="0" style="stop-color:#fff"/><stop offset="1" style="stop-color:#fff;stop-opacity:.53"/></linearGradient><path fill="url(#g)" d="M11.928 159.467a112.887 112.887 0 0 0 7.314 18.18c23.332 46 66.333 61.166 86.833 64.834 20.5 3.666 28.375-1.627 28.375-1.627-3.75 1.063-12.25.25-12.25.25-16.375-1.875-33.292-14.375-40.292-21.75-.007-.008 4.75 4.125 0 0-32.353-2.27-58.98-44.915-69.98-59.887z" opacity="0.3" style="fill:url(#g)"/><path fill="#fff" d="M71.346 57.354s4-6 .875-12.063c-2.152-4.177-5.5-4.5-6.5-3.625 0 .001 1 10.188 5.625 15.688M79.159 41.313s6.084-4.25 8.25-6.167c2.168-1.917.418-5.417-1.916-5.083-2.334.334-7.5 1.625-10.625 4.917-2.49 2.624-2.271 5.604-.521 6.938 1.75 1.334 3.896.061 4.812-.605z" opacity="0.5"/><linearGradient id="h" x1="365.08691" x2="436.26791" y1="-116.2905" y2="-153.5437" gradientTransform="matrix(1 0 0 -1 -256 -90)" gradientUnits="userSpaceOnUse"><stop offset="0" style="stop-color:#fff;stop-opacity:.7"/><stop offset="1" style="stop-color:#fff;stop-opacity:0"/></linearGradient><path fill="url(#h)" d="M183.492 38.479c-56.75-41.5-118.243-.275-118.243-.275s52.743-50.225 130.493-.725z" opacity="0.32" style="fill:url(#h)"/><linearGradient id="i" x1="279.0625" x2="299.7944" y1="-183.9019" y2="-194.75211" gradientTransform="matrix(1 0 0 -1 -256 -90)" gradientUnits="userSpaceOnUse"><stop offset="0" style="stop-color:#fff;stop-opacity:.7"/><stop offset="1" style="stop-color:#fff;stop-opacity:0"/></linearGradient><path fill="url(#i)" d="M54.952 38.071c-.017-.484-.668-.216-.668-.216-66.625 51.625-39.938 124.187-39.938 124.187C-2.841 78.229 54.502 38.745 54.502 38.745s.465-.221.45-.674z" opacity="0.6" style="fill:url(#i)"/><linearGradient id="j" x1="357.2529" x2="356.90781" y1="-164.50101" y2="-217.6514" gradientTransform="matrix(1 0 0 -1 -256 -90)" gradientUnits="userSpaceOnUse"><stop offset="0" style="stop-color:#fff;stop-opacity:.7"/><stop offset="1" style="stop-color:#fff;stop-opacity:0"/></linearGradient><path fill="url(#j)" d="M109.493 79.229s-14 11.625-11.375 38.75c0 0-.688 3.688-3.75-1.125-3.062-4.813-3.5-31.25 15.125-37.625z" opacity="0.6" style="fill:url(#j)"/><linearGradient id="k" x1="360.1279" x2="381.99631" y1="-174.2256" y2="-168.7585" gradientTransform="matrix(1 0 0 -1 -256 -90)" gradientUnits="userSpaceOnUse"><stop offset="0" style="stop-color:#fff;stop-opacity:.7"/><stop offset="1" style="stop-color:#fff;stop-opacity:0"/></linearGradient><path fill="url(#k)" d="M128.118 75.854s-13.625 3.375-18.063 9.25c-4.438 5.875-6.167-.313-1.229-3.875s12.292-6.375 19.292-5.375z" opacity="0.6" style="fill:url(#k)"/><path fill="#af8513" d="m179.117 91.854-1.625 3s9.333 27.958-6.084 47.125l2.479.354 11-21 1-21.667z"/><radialGradient id="l" cx="384.82709" cy="-208.9785" r="125.9904" gradientTransform="matrix(1 0 0 -1 -256 -90)" gradientUnits="userSpaceOnUse"><stop offset="0.182" style="stop-color:#ffe650"/><stop offset="0.703" style="stop-color:#ffdb00"/><stop offset="1" style="stop-color:#d5b319"/></radialGradient><path fill="url(#l)" d="m129.408 159.229-43.333 33.918s-10.251 7.166-3.583 14.416c6.666 7.25 29.333 31.666 56.083 33.916 26.75 2.25 71-19 91-50s32.5-85.499-4-128.999c0 0 14.001 22.833 15.834 42.333 1.833 19.5-1.834 7.166-19.834 1.333s-30.333-8.667-34.833-10.167-7.042-3.5-7.667-4.063c0 0 7.229 22.302-.375 37.813-9.5 19.375-23.959 27.75-49.292 29.5z" style="fill:url(#l)"/><g fill="#fff" opacity="0.64"><path d="M103.169 164.258a560.692 560.692 0 0 1 11.073-7.445c-22.215-5.442-38.668-25.774-38.668-49.667 0-4.174.718-7.782 1.095-11.76.175-1.84-.956-5.125-4.223-9.996a60.38 60.38 0 0 0-4.771 23.59c0 24.467 14.531 45.559 35.494 55.278zM184.486 82.295c-9.979-20.314-30.994-34.315-55.313-34.315a61.577 61.577 0 0 0-50.974 26.863c.817 1.487 1.569 2.76 2.208 3.72 0 0 1.563 2.229 1.479 4.979 0 0 8.813-17.813 29.188-24.063s42.25-3.25 59.375 17.375l1.75 1.875s2.875 3.188 11.063 3.5c.369.015.787.038 1.224.066zM179.075 91.917s7.229 22.302-.375 37.812c-9.5 19.375-23.959 27.75-49.292 29.5l-12.238 9.58a62.287 62.287 0 0 0 12.004 1.17c33.967 0 61.5-27.311 61.5-60.999a60.87 60.87 0 0 0-1.229-12.187 68.991 68.991 0 0 1-2.703-.813c-4.5-1.501-7.042-3.501-7.667-4.063z"/></g><linearGradient id="m" x1="428.91989" x2="428.91989" y1="-367.64499" y2="-263.64551" gradientTransform="matrix(1 0 0 -1 -256 -90)" gradientUnits="userSpaceOnUse"><stop offset="0" style="stop-color:#fff"/><stop offset="1" style="stop-color:#fff;stop-opacity:.53"/></linearGradient><path fill="url(#m)" d="M229.575 191.479c6.829-10.584 12.78-23.908 16.208-38.598-15.189 29.146-45.028 66.418-99.775 72.766-17.174 1.99-32.454 1.158-45.951-1.514 10.27 8.127 23.77 16.105 38.518 17.346 26.75 2.25 71-19 91-50z" opacity="0.3" style="fill:url(#m)"/><linearGradient id="n" x1="341.9707" x2="410.49091" y1="-167.76759" y2="-167.1665" gradientTransform="matrix(1 0 0 -1 -256 -90)" gradientUnits="userSpaceOnUse"><stop offset="0" style="stop-color:#29506b"/><stop offset="0.0677" style="stop-color:#304d68"/><stop offset="0.1639" style="stop-color:#424560"/><stop offset="0.2766" style="stop-color:#613854"/><stop offset="0.297" style="stop-color:#673551"/><stop offset="0.5515" style="stop-color:#4d7ebe"/><stop offset="0.7455" style="stop-color:#633753"/><stop offset="1" style="stop-color:#29506b"/></linearGradient><path fill="url(#n)" d="M89.583 87.094c.742-.339 4.361-2.203 19.41-11.927 17.667-11.417 24.833-1.333 31.667.667 6.834 2 10.583-2 10.583-2s-.095-.066-.265-.176c-6.754-3.567-14.567-5.616-22.902-5.616-16.059 0-30.201 7.567-38.493 19.052z" style="fill:url(#n)"/><path fill="#fff" d="M127.999 69.188c25.181 0 45.646 19.332 46.222 42.479.01-.333.027-.665.027-1 0-23.61-20.707-42.75-46.25-42.75s-46.25 19.14-46.25 42.75c0 .335.02.667.027 1 .578-23.147 21.044-42.479 46.224-42.479z" opacity="0.15"/><linearGradient id="o" x1="415.9873" x2="402.32071" y1="-229.39549" y2="-172.39461" gradientTransform="matrix(1 0 0 -1 -256 -90)" gradientUnits="userSpaceOnUse"><stop offset="0" style="stop-color:#343539"/><stop offset="0.3212" style="stop-color:#29506b"/><stop offset="1" style="stop-color:#c7dd85"/></linearGradient><path fill="url(#o)" d="M155.688 86.479s14 17.5 3.334 32c-10.668 14.5-15.502 18.833-16.168 23.667 0 0 30-9.168 28.5-25.5-1.5-16.333-4.833-22.667-15.666-30.167" opacity="0.6" style="fill:url(#o)"/><linearGradient id="p" x1="363.08499" x2="363.61719" y1="-235.29491" y2="-212.6716" gradientTransform="matrix(1 0 0 -1 -256 -90)" gradientUnits="userSpaceOnUse"><stop offset="0" style="stop-color:#343539"/><stop offset="0.3212" style="stop-color:#29506b"/><stop offset="1" style="stop-color:#496d4e"/></linearGradient><path fill="url(#p)" d="M84.864 98.979s1.125 19.75 6.375 23.75c0 0 8.208 20.16 39.542 18.326l-3.042 5.674s-23.75 6.25-33.875-9.125-10.125-25-9-38.625z" style="fill:url(#p)"/><linearGradient id="q" x1="492.69629" x2="499.52979" y1="-215.0396" y2="-223.5401" gradientTransform="matrix(1 0 0 -1 -256 -90)" gradientUnits="userSpaceOnUse"><stop offset="0" style="stop-color:#f4dd80"/><stop offset="1" style="stop-color:#f4dd80;stop-opacity:.3"/></linearGradient><path fill="url(#q)" d="M247.033 140.166s-3.25-14.64-12.469-14.234l.094-1.391c0 .001 9.625-.749 12.375 15.625z" style="fill:url(#q)"/><linearGradient id="r" x1="491.7793" x2="467.19501" y1="-206.5625" y2="-274.9928" gradientTransform="matrix(1 0 0 -1 -256 -90)" gradientUnits="userSpaceOnUse"><stop offset="0" style="stop-color:#f4dd80"/><stop offset="1" style="stop-color:#f4dd80;stop-opacity:.3"/></linearGradient><path fill="url(#r)" d="M234.564 125.932h1.156c-.779 11.214-6.832 50.207-35.229 68.214.001 0 30.198-20.964 34.073-68.214z" style="fill:url(#r)"/><path fill="#d1ab1a" d="M188.91 226.063s3.582-9-7.668-19.75c0 0 31.25-18 41.084-39.334 9.832-21.332 11.166-38 10.832-43.666 0 0 11.75-1.896 14 16.478 0 0-2.375-14.375-12.5-15.25 0 0-1.461 25.083-12.125 44.563-9.375 17.125-24.75 27.375-39 37.5 0 0 9.627 10.916 5.377 19.459z"/><linearGradient id="s" x1="440.0918" x2="445.4176" y1="-293.00241" y2="-309.92001" gradientTransform="matrix(1 0 0 -1 -256 -90)" gradientUnits="userSpaceOnUse"><stop offset="0" style="stop-color:#f4dd80"/><stop offset="1" style="stop-color:#f4dd80;stop-opacity:.3"/></linearGradient><path fill="url(#s)" d="M184.596 205.822s8.625 10.531 4.969 18.719c0 0 2.781-6.688-6.063-17.938z" style="fill:url(#s)"/><linearGradient id="t" x1="414.5322" x2="426.1514" y1="-303.73389" y2="-323.94119" gradientTransform="matrix(1 0 0 -1 -256 -90)" gradientUnits="userSpaceOnUse"><stop offset="0" style="stop-color:#f4dd80"/><stop offset="1" style="stop-color:#f4dd80;stop-opacity:.3"/></linearGradient><path fill="url(#t)" d="M157.033 236.604s-5.625-10-6.625-14.625c0 0 16.25-4 22.125-6.875 0 0 4.125 4.75 7 14.5 0 0 .125-9.25-6.875-16.5l-24.75 7.75s5.75 12.375 9.125 15.75z" style="fill:url(#t)"/><path fill="#d1ab1a" d="M158.242 238.063s-7.75-5.998-11.416-18.082c0 0 15.666-3.002 25.916-7.834 0 0 8.25 7.75 7.25 19.916 0 0-.5-10.916-7.334-18.332 0 0-16.25 6.498-23.75 7.416 0-.001 2.418 8.833 9.334 16.916z"/></g></svg>